<?xml version="1.0" standalone="no"?><svg xmlns:xlink="http://www.w3.org/1999/xlink" xmlns="http://www.w3.org/2000/svg" viewBox="0 0 1000 562.5026674064275" preserveAspectRatio="xMaxYMax slice"><g transform="scale(0.8535700567624088)"><rect x="0" y="0" width="1171.5555555555557" height="659" fill="#1e2023"/><rect x="146.44444444444446" y="0" width="73.22222222222223" height="73.22222222222223" fill="#1e2023"/><rect x="219.66666666666669" y="0" width="73.22222222222223" height="73.22222222222223" fill="#1e2023"/><path d="M 256.28 0 A 36.61 36.61 0 0 1  292.89 36.61 L 256.28 0 A 36.61 36.61 0 0 0 292.89 36.61" fill="#453a42"/><path d="M 219.67 36.61 A 36.61 36.61 0 0 1  256.28 73.22 L 219.67 36.61 A 36.61 36.61 0 0 0 256.28 73.22" fill="#dc8564"/><rect x="292.8888888888889" y="0" width="73.22222222222223" height="73.22222222222223" fill="#1e2023"/><path d="M 292.89 73.22 A 36.61 36.61 0 0 1  329.5 36.61 L 292.89 73.22 A 36.61 36.61 0 0 0 329.5 36.61" fill="#5c4138"/><path d="M 329.5 73.22 A 36.61 36.61 0 0 1  366.11 36.61 L 329.5 73.22 A 36.61 36.61 0 0 0 366.11 36.61" fill="#483731"/><rect x="366.11111111111114" y="0" width="73.22222222222223" height="73.22222222222223" fill="#1e2023"/><path d="M 402.72 73.22 A 36.61 36.61 0 0 1  439.33000000000004 36.61 L 402.72 73.22 A 36.61 36.61 0 0 0 439.33000000000004 36.61" fill="#41332f"/><rect x="585.7777777777778" y="0" width="73.22222222222223" height="73.22222222222223" fill="#1e2023"/><path d="M 622.39 0 A 36.61 36.61 0 0 1  659 36.61 L 622.39 0 A 36.61 36.61 0 0 0 659 36.61" fill="#699be1"/><rect x="805.4444444444446" y="0" width="73.22222222222223" height="73.22222222222223" fill="#1e2023"/><rect x="878.6666666666667" y="0" width="73.22222222222223" height="73.22222222222223" fill="#1e2023"/><path d="M 878.67 36.61 A 36.61 36.61 0 0 1  915.28 0 L 878.67 36.61 A 36.61 36.61 0 0 0 915.28 0" fill="#5e89c6"/><rect x="1025.1111111111113" y="0" width="73.22222222222223" height="73.22222222222223" fill="#1e2023"/><path d="M 1061.72 36.61 A 36.61 36.61 0 0 1  1098.33 73.22 L 1061.72 36.61 A 36.61 36.61 0 0 0 1098.33 73.22" fill="#1e2023"/><path d="M 1098.33 73.22 A 73.22 73.22 0 0 1  1171.55 0 L 1098.33 73.22 A 73.22 73.22 0 0 0 1171.55 0" fill="#96604c"/><rect x="292.8888888888889" y="73.22222222222223" width="73.22222222222223" height="73.22222222222223" fill="#1e2023"/><path d="M 329.5 146.44 A 36.61 36.61 0 0 1  366.11 109.83 L 329.5 146.44 A 36.61 36.61 0 0 0 366.11 109.83" fill="#423840"/><path d="M 512.56 73.22 A 73.22 73.22 0 0 1  585.78 146.44 L 512.56 73.22 A 73.22 73.22 0 0 0 585.78 146.44" fill="#342c2b"/><rect x="659" y="73.22222222222223" width="73.22222222222223" height="73.22222222222223" fill="#1e2023"/><path d="M 732.22 73.22 A 73.22 73.22 0 0 1  805.44 146.44 L 732.22 73.22 A 73.22 73.22 0 0 0 805.44 146.44" fill="#d88363"/><rect x="951.8888888888889" y="73.22222222222223" width="73.22222222222223" height="73.22222222222223" fill="#1e2023"/><path d="M 988.5 109.83 A 36.61 36.61 0 0 1  1025.11 146.44 L 988.5 109.83 A 36.61 36.61 0 0 0 1025.11 146.44" fill="#db8564"/><path d="M 0 219.66 A 73.22 73.22 0 0 1  73.22 146.44 L 0 219.66 A 73.22 73.22 0 0 0 73.22 146.44" fill="#2a282d"/><rect x="219.66666666666669" y="146.44444444444446" width="73.22222222222223" height="73.22222222222223" fill="#1e2023"/><path d="M 219.67 146.44 A 36.61 36.61 0 0 1  256.28 183.05 L 219.67 146.44 A 36.61 36.61 0 0 0 256.28 183.05" fill="#815545"/><path d="M 219.67 219.67000000000002 A 36.61 36.61 0 0 1  256.28 183.06 L 219.67 219.67000000000002 A 36.61 36.61 0 0 0 256.28 183.06" fill="#567bb0"/><path d="M 256.28 219.67000000000002 A 36.61 36.61 0 0 1  292.89 183.06 L 256.28 219.67000000000002 A 36.61 36.61 0 0 0 292.89 183.06" fill="#3f5677"/><rect x="439.33333333333337" y="146.44444444444446" width="73.22222222222223" height="73.22222222222223" fill="#1e2023"/><path d="M 439.33 219.67000000000002 A 36.61 36.61 0 0 1  475.94 183.06 L 439.33 219.67000000000002 A 36.61 36.61 0 0 0 475.94 183.06" fill="#362d2b"/><rect x="585.7777777777778" y="146.44444444444446" width="73.22222222222223" height="73.22222222222223" fill="#1e2023"/><path d="M 585.78 183.05 A 36.61 36.61 0 0 1  622.39 146.44 L 585.78 183.05 A 36.61 36.61 0 0 0 622.39 146.44" fill="#b77257"/><path d="M 622.39 183.05 A 36.61 36.61 0 0 1  659 146.44 L 622.39 183.05 A 36.61 36.61 0 0 0 659 146.44" fill="#67473c"/><path d="M 622.39 219.67000000000002 A 36.61 36.61 0 0 1  659 183.06 L 622.39 219.67000000000002 A 36.61 36.61 0 0 0 659 183.06" fill="#fd976f"/><rect x="732.2222222222223" y="146.44444444444446" width="73.22222222222223" height="73.22222222222223" fill="#1e2023"/><path d="M 732.22 183.05 A 36.61 36.61 0 0 1  768.83 146.44 L 732.22 183.05 A 36.61 36.61 0 0 0 768.83 146.44" fill="#47628a"/><path d="M 732.22 219.67000000000002 A 36.61 36.61 0 0 1  768.83 183.06 L 732.22 219.67000000000002 A 36.61 36.61 0 0 0 768.83 183.06" fill="#2a3442"/><path d="M 768.83 219.67000000000002 A 36.61 36.61 0 0 1  805.44 183.06 L 768.83 219.67000000000002 A 36.61 36.61 0 0 0 805.44 183.06" fill="#a16650"/><path d="M 219.67 292.89 A 73.22 73.22 0 0 1  292.89 219.67 L 219.67 292.89 A 73.22 73.22 0 0 0 292.89 219.67" fill="#5276a8"/><rect x="292.8888888888889" y="219.66666666666669" width="73.22222222222223" height="73.22222222222223" fill="#1e2023"/><path d="M 329.5 219.67 A 36.61 36.61 0 0 1  366.11 256.28 L 329.5 219.67 A 36.61 36.61 0 0 0 366.11 256.28" fill="#1f2125"/><path d="M 329.5 256.28 A 36.61 36.61 0 0 1  366.11 292.89 L 329.5 256.28 A 36.61 36.61 0 0 0 366.11 292.89" fill="#805445"/><rect x="366.11111111111114" y="219.66666666666669" width="73.22222222222223" height="73.22222222222223" fill="#1e2023"/><path d="M 366.11 219.67 A 36.61 36.61 0 0 1  402.72 256.28 L 366.11 219.67 A 36.61 36.61 0 0 0 402.72 256.28" fill="#4a6791"/><path d="M 366.11 256.28 A 36.61 36.61 0 0 1  402.72 292.89 L 366.11 256.28 A 36.61 36.61 0 0 0 402.72 292.89" fill="#242428"/><path d="M 402.72 256.28 A 36.61 36.61 0 0 1  439.33000000000004 292.89 L 402.72 256.28 A 36.61 36.61 0 0 0 439.33000000000004 292.89" fill="#28272b"/><rect x="951.8888888888889" y="219.66666666666669" width="73.22222222222223" height="73.22222222222223" fill="#1e2023"/><path d="M 951.89 292.89 A 36.61 36.61 0 0 1  988.5 256.28 L 951.89 292.89 A 36.61 36.61 0 0 0 988.5 256.28" fill="#f5936d"/><rect x="1098.3333333333335" y="219.66666666666669" width="73.22222222222223" height="73.22222222222223" fill="#1e2023"/><path d="M 1134.94 256.28 A 36.61 36.61 0 0 1  1171.55 219.67 L 1134.94 256.28 A 36.61 36.61 0 0 0 1171.55 219.67" fill="#4f709f"/><path d="M 1134.94 256.28 A 36.61 36.61 0 0 1  1171.55 292.89 L 1134.94 256.28 A 36.61 36.61 0 0 0 1171.55 292.89" fill="#5b4138"/><path d="M 292.89 366.11 A 73.22 73.22 0 0 1  366.11 292.89 L 292.89 366.11 A 73.22 73.22 0 0 0 366.11 292.89" fill="#3b333a"/><rect x="659" y="292.8888888888889" width="73.22222222222223" height="73.22222222222223" fill="#1e2023"/><path d="M 695.61 366.11 A 36.61 36.61 0 0 1  732.22 329.5 L 695.61 366.11 A 36.61 36.61 0 0 0 732.22 329.5" fill="#2b3644"/><rect x="805.4444444444446" y="292.8888888888889" width="73.22222222222223" height="73.22222222222223" fill="#1e2023"/><path d="M 805.44 292.89 A 36.61 36.61 0 0 1  842.0500000000001 329.5 L 805.44 292.89 A 36.61 36.61 0 0 0 842.0500000000001 329.5" fill="#608bc9"/><path d="M 805.44 366.11 A 36.61 36.61 0 0 1  842.0500000000001 329.5 L 805.44 366.11 A 36.61 36.61 0 0 0 842.0500000000001 329.5" fill="#212225"/><path d="M 951.89 366.11 A 73.22 73.22 0 0 1  1025.11 292.89 L 951.89 366.11 A 73.22 73.22 0 0 0 1025.11 292.89" fill="#5980b8"/><rect x="0" y="366.11111111111114" width="73.22222222222223" height="73.22222222222223" fill="#1e2023"/><path d="M 36.61 366.11 A 36.61 36.61 0 0 1  73.22 402.72 L 36.61 366.11 A 36.61 36.61 0 0 0 73.22 402.72" fill="#425a7e"/><path d="M 36.61 402.72 A 36.61 36.61 0 0 1  73.22 439.33000000000004 L 36.61 402.72 A 36.61 36.61 0 0 0 73.22 439.33000000000004" fill="#5579ad"/><path d="M 73.22 366.11 A 73.22 73.22 0 0 1  146.44 439.33000000000004 L 73.22 366.11 A 73.22 73.22 0 0 0 146.44 439.33000000000004" fill="#483c44"/><path d="M 1098.33 366.11 A 73.22 73.22 0 0 1  1171.55 439.33000000000004 L 1098.33 366.11 A 73.22 73.22 0 0 0 1171.55 439.33000000000004" fill="#3c343b"/><rect x="0" y="439.33333333333337" width="73.22222222222223" height="73.22222222222223" fill="#1e2023"/><path d="M 0 512.55 A 36.61 36.61 0 0 1  36.61 475.94 L 0 512.55 A 36.61 36.61 0 0 0 36.61 475.94" fill="#4b3e47"/><rect x="292.8888888888889" y="439.33333333333337" width="73.22222222222223" height="73.22222222222223" fill="#1e2023"/><path d="M 292.89 512.55 A 36.61 36.61 0 0 1  329.5 475.94 L 292.89 512.55 A 36.61 36.61 0 0 0 329.5 475.94" fill="#393238"/><path d="M 329.5 475.94 A 36.61 36.61 0 0 1  366.11 512.55 L 329.5 475.94 A 36.61 36.61 0 0 0 366.11 512.55" fill="#d68262"/><rect x="366.11111111111114" y="439.33333333333337" width="73.22222222222223" height="73.22222222222223" fill="#1e2023"/><path d="M 366.11 475.94 A 36.61 36.61 0 0 1  402.72 439.33 L 366.11 475.94 A 36.61 36.61 0 0 0 402.72 439.33" fill="#f1916b"/><path d="M 366.11 512.55 A 36.61 36.61 0 0 1  402.72 475.94 L 366.11 512.55 A 36.61 36.61 0 0 0 402.72 475.94" fill="#ed8e6a"/><path d="M 402.72 512.55 A 36.61 36.61 0 0 1  439.33000000000004 475.94 L 402.72 512.55 A 36.61 36.61 0 0 0 439.33000000000004 475.94" fill="#1e2124"/><path d="M 585.78 512.55 A 73.22 73.22 0 0 1  659 439.33 L 585.78 512.55 A 73.22 73.22 0 0 0 659 439.33" fill="#dd8664"/><path d="M 951.89 512.55 A 73.22 73.22 0 0 1  1025.11 439.33 L 951.89 512.55 A 73.22 73.22 0 0 0 1025.11 439.33" fill="#2b2727"/><rect x="1098.3333333333335" y="439.33333333333337" width="73.22222222222223" height="73.22222222222223" fill="#1e2023"/><path d="M 1134.94 475.94 A 36.61 36.61 0 0 1  1171.55 512.55 L 1134.94 475.94 A 36.61 36.61 0 0 0 1171.55 512.55" fill="#845646"/><rect x="73.22222222222223" y="512.5555555555557" width="73.22222222222223" height="73.22222222222223" fill="#1e2023"/><path d="M 73.22 549.17 A 36.61 36.61 0 0 1  109.83 512.56 L 73.22 549.17 A 36.61 36.61 0 0 0 109.83 512.56" fill="#2e3a4b"/><path d="M 109.83 549.17 A 36.61 36.61 0 0 1  146.44 585.78 L 109.83 549.17 A 36.61 36.61 0 0 0 146.44 585.78" fill="#363036"/><path d="M 585.78 585.78 A 73.22 73.22 0 0 1  659 512.56 L 585.78 585.78 A 73.22 73.22 0 0 0 659 512.56" fill="#483c44"/><path d="M 659 512.56 A 73.22 73.22 0 0 1  732.22 585.78 L 659 512.56 A 73.22 73.22 0 0 0 732.22 585.78" fill="#65463b"/><path d="M 732.22 512.56 A 73.22 73.22 0 0 1  805.44 585.78 L 732.22 512.56 A 73.22 73.22 0 0 0 805.44 585.78" fill="#5b84be"/><rect x="219.66666666666669" y="585.7777777777778" width="73.22222222222223" height="73.22222222222223" fill="#1e2023"/><path d="M 256.28 622.39 A 36.61 36.61 0 0 1  292.89 585.78 L 256.28 622.39 A 36.61 36.61 0 0 0 292.89 585.78" fill="#af6d55"/><rect x="439.33333333333337" y="585.7777777777778" width="73.22222222222223" height="73.22222222222223" fill="#1e2023"/><path d="M 585.78 585.78 A 73.22 73.22 0 0 1  659 659 L 585.78 585.78 A 73.22 73.22 0 0 0 659 659" fill="#373037"/><rect x="659" y="585.7777777777778" width="73.22222222222223" height="73.22222222222223" fill="#1e2023"/><path d="M 659 585.78 A 36.61 36.61 0 0 1  695.61 622.39 L 659 585.78 A 36.61 36.61 0 0 0 695.61 622.39" fill="#473b43"/><rect x="878.6666666666667" y="585.7777777777778" width="73.22222222222223" height="73.22222222222223" fill="#1e2023"/><path d="M 915.28 585.78 A 36.61 36.61 0 0 1  951.89 622.39 L 915.28 585.78 A 36.61 36.61 0 0 0 951.89 622.39" fill="#503b34"/><path d="M 878.67 622.39 A 36.61 36.61 0 0 1  915.28 659 L 878.67 622.39 A 36.61 36.61 0 0 0 915.28 659" fill="#66463c"/><path d="M 951.89 659 A 73.22 73.22 0 0 1  1025.11 585.78 L 951.89 659 A 73.22 73.22 0 0 0 1025.11 585.78" fill="#303d50"/><rect x="1025.1111111111113" y="585.7777777777778" width="73.22222222222223" height="73.22222222222223" fill="#1e2023"/><path d="M 1025.11 585.78 A 36.61 36.61 0 0 1  1061.7199999999998 622.39 L 1025.11 585.78 A 36.61 36.61 0 0 0 1061.7199999999998 622.39" fill="#1f2124"/></g></svg>