<svg xmlns="http://www.w3.org/2000/svg" xmlns:xlink="http://www.w3.org/1999/xlink" width="500" zoomAndPan="magnify" viewBox="0 0 375 374.999991" height="500" preserveAspectRatio="xMidYMid meet" version="1.0"><defs><g/><clipPath id="id1"><path d="M 47.65625 122.25 L 120 122.25 L 120 195 L 47.65625 195 Z M 47.65625 122.25 " clip-rule="nonzero"/></clipPath><clipPath id="id2"><path d="M 66 148 L 138.40625 148 L 138.40625 220.5 L 66 220.5 Z M 66 148 " clip-rule="nonzero"/></clipPath><clipPath id="id3"><path d="M 128 123 L 138.40625 123 L 138.40625 163 L 128 163 Z M 128 123 " clip-rule="nonzero"/></clipPath><clipPath id="id4"><path d="M 47.65625 206 L 62 206 L 62 220.5 L 47.65625 220.5 Z M 47.65625 206 " clip-rule="nonzero"/></clipPath></defs><g clip-path="url(#id1)"><path fill="rgb(32.939148%, 26.669312%, 30.589294%)" d="M 83.570312 184.140625 L 119.523438 184.140625 L 119.523438 194.460938 L 83.570312 194.460938 C 73.664062 194.460938 65.203125 190.921875 58.191406 183.878906 C 51.179688 176.835938 47.652344 168.34375 47.652344 158.359375 L 47.652344 122.296875 L 57.929688 122.296875 L 57.929688 158.359375 C 57.929688 165.511719 60.417969 171.546875 65.425781 176.578125 C 70.433594 181.605469 76.480469 184.140625 83.570312 184.140625 " fill-opacity="1" fill-rule="nonzero"/></g><g clip-path="url(#id2)"><path fill="rgb(100%, 59.609985%, 43.919373%)" d="M 102.492188 158.621094 L 66.574219 158.621094 L 66.574219 148.335938 L 102.492188 148.335938 C 112.433594 148.335938 120.894531 151.839844 127.871094 158.878906 C 134.921875 165.921875 138.40625 174.417969 138.40625 184.402344 L 138.40625 220.464844 L 128.128906 220.464844 L 128.128906 184.402344 C 128.128906 177.285156 125.644531 171.210938 120.636719 166.183594 C 115.625 161.152344 109.578125 158.621094 102.492188 158.621094 " fill-opacity="1" fill-rule="nonzero"/></g><g clip-path="url(#id3)"><path fill="rgb(32.939148%, 26.669312%, 30.589294%)" d="M 128.128906 123.078125 L 138.40625 123.078125 L 138.40625 162.679688 C 136.664062 159.847656 134.550781 157.203125 132.0625 154.671875 C 130.800781 153.402344 129.503906 152.25 128.128906 151.167969 L 128.128906 123.078125 " fill-opacity="1" fill-rule="evenodd"/></g><g clip-path="url(#id4)"><path fill="rgb(100%, 59.609985%, 43.919373%)" d="M 54.703125 220.464844 C 58.597656 220.464844 61.753906 217.296875 61.753906 213.386719 C 61.753906 209.472656 58.597656 206.304688 54.703125 206.304688 C 50.84375 206.304688 47.652344 209.472656 47.652344 213.386719 C 47.652344 217.296875 50.84375 220.464844 54.703125 220.464844 " fill-opacity="1" fill-rule="evenodd"/></g><g fill="rgb(32.939148%, 26.669312%, 30.589294%)" fill-opacity="1"><g transform="translate(144.068491, 218.700029)"><g><path d="M 37.65625 -23.09375 L 30.09375 0 L 24.359375 0 L 19.265625 -15.640625 L 14.03125 0 L 8.3125 0 L 0.71875 -23.09375 L 6.265625 -23.09375 L 11.484375 -6.859375 L 16.921875 -23.09375 L 21.875 -23.09375 L 27.15625 -6.734375 L 32.53125 -23.09375 Z M 37.65625 -23.09375 "/></g></g></g><g fill="rgb(32.939148%, 26.669312%, 30.589294%)" fill-opacity="1"><g transform="translate(188.967814, 218.700029)"><g><path d="M 17.953125 -4.953125 L 7.234375 -4.953125 L 5.1875 0 L -0.296875 0 L 10 -23.09375 L 15.28125 -23.09375 L 25.609375 0 L 20 0 Z M 16.265625 -9.015625 L 12.609375 -17.859375 L 8.9375 -9.015625 Z M 16.265625 -9.015625 "/></g></g></g><g fill="rgb(32.939148%, 26.669312%, 30.589294%)" fill-opacity="1"><g transform="translate(220.770783, 218.700029)"><g><path d="M 2.734375 -23.09375 L 8.078125 -23.09375 L 8.078125 -4.359375 L 19.671875 -4.359375 L 19.671875 0 L 2.734375 0 Z M 2.734375 -23.09375 "/></g></g></g><g fill="rgb(32.939148%, 26.669312%, 30.589294%)" fill-opacity="1"><g transform="translate(247.229647, 218.700029)"><g><path d="M 2.734375 -23.09375 L 8.078125 -23.09375 L 8.078125 0 L 2.734375 0 Z M 2.734375 -23.09375 "/></g></g></g><g fill="rgb(32.939148%, 26.669312%, 30.589294%)" fill-opacity="1"><g transform="translate(264.583742, 218.700029)"><g><path d="M 23.765625 0 L 23.734375 -13.859375 L 16.921875 -2.4375 L 14.515625 -2.4375 L 7.75 -13.5625 L 7.75 0 L 2.734375 0 L 2.734375 -23.09375 L 7.15625 -23.09375 L 15.8125 -8.75 L 24.328125 -23.09375 L 28.703125 -23.09375 L 28.78125 0 Z M 23.765625 0 "/></g></g></g><g fill="rgb(32.939148%, 26.669312%, 30.589294%)" fill-opacity="1"><g transform="translate(302.621497, 218.700029)"><g><path d="M 17.953125 -4.953125 L 7.234375 -4.953125 L 5.1875 0 L -0.296875 0 L 10 -23.09375 L 15.28125 -23.09375 L 25.609375 0 L 20 0 Z M 16.265625 -9.015625 L 12.609375 -17.859375 L 8.9375 -9.015625 Z M 16.265625 -9.015625 "/></g></g></g><g fill="rgb(32.939148%, 26.669312%, 30.589294%)" fill-opacity="1"><g transform="translate(27.769578, 238.666523)"><g><path d="M 1.578125 -13.296875 L 7.625 -13.296875 C 9.0625 -13.296875 10.332031 -13.019531 11.4375 -12.46875 C 12.550781 -11.914062 13.414062 -11.140625 14.03125 -10.140625 C 14.644531 -9.140625 14.953125 -7.976562 14.953125 -6.65625 C 14.953125 -5.320312 14.644531 -4.15625 14.03125 -3.15625 C 13.414062 -2.15625 12.550781 -1.378906 11.4375 -0.828125 C 10.332031 -0.273438 9.0625 0 7.625 0 L 1.578125 0 Z M 7.46875 -2.53125 C 8.800781 -2.53125 9.863281 -2.898438 10.65625 -3.640625 C 11.445312 -4.378906 11.84375 -5.382812 11.84375 -6.65625 C 11.84375 -7.914062 11.445312 -8.914062 10.65625 -9.65625 C 9.863281 -10.394531 8.800781 -10.765625 7.46875 -10.765625 L 4.65625 -10.765625 L 4.65625 -2.53125 Z M 7.46875 -2.53125 "/></g></g></g><g fill="rgb(32.939148%, 26.669312%, 30.589294%)" fill-opacity="1"><g transform="translate(51.820299, 238.666523)"><g><path d="M 1.578125 -13.296875 L 4.65625 -13.296875 L 4.65625 0 L 1.578125 0 Z M 1.578125 -13.296875 "/></g></g></g><g fill="rgb(32.939148%, 26.669312%, 30.589294%)" fill-opacity="1"><g transform="translate(66.410946, 238.666523)"><g><path d="M 10.5625 -6.859375 L 13.375 -6.859375 L 13.375 -1.46875 C 12.65625 -0.914062 11.816406 -0.492188 10.859375 -0.203125 C 9.910156 0.0859375 8.957031 0.234375 8 0.234375 C 6.613281 0.234375 5.367188 -0.0546875 4.265625 -0.640625 C 3.171875 -1.234375 2.304688 -2.050781 1.671875 -3.09375 C 1.046875 -4.144531 0.734375 -5.332031 0.734375 -6.65625 C 0.734375 -7.96875 1.046875 -9.144531 1.671875 -10.1875 C 2.304688 -11.238281 3.179688 -12.054688 4.296875 -12.640625 C 5.410156 -13.234375 6.664062 -13.53125 8.0625 -13.53125 C 9.21875 -13.53125 10.269531 -13.332031 11.21875 -12.9375 C 12.175781 -12.539062 12.976562 -11.972656 13.625 -11.234375 L 11.640625 -9.40625 C 10.691406 -10.40625 9.546875 -10.90625 8.203125 -10.90625 C 7.359375 -10.90625 6.601562 -10.726562 5.9375 -10.375 C 5.28125 -10.019531 4.769531 -9.519531 4.40625 -8.875 C 4.039062 -8.226562 3.859375 -7.488281 3.859375 -6.65625 C 3.859375 -5.832031 4.039062 -5.097656 4.40625 -4.453125 C 4.769531 -3.804688 5.28125 -3.300781 5.9375 -2.9375 C 6.59375 -2.570312 7.335938 -2.390625 8.171875 -2.390625 C 9.054688 -2.390625 9.851562 -2.582031 10.5625 -2.96875 Z M 10.5625 -6.859375 "/></g></g></g><g fill="rgb(32.939148%, 26.669312%, 30.589294%)" fill-opacity="1"><g transform="translate(89.416882, 238.666523)"><g><path d="M 1.578125 -13.296875 L 4.65625 -13.296875 L 4.65625 0 L 1.578125 0 Z M 1.578125 -13.296875 "/></g></g></g><g fill="rgb(32.939148%, 26.669312%, 30.589294%)" fill-opacity="1"><g transform="translate(104.007526, 238.666523)"><g><path d="M 4.328125 -10.796875 L 0.078125 -10.796875 L 0.078125 -13.296875 L 11.671875 -13.296875 L 11.671875 -10.796875 L 7.40625 -10.796875 L 7.40625 0 L 4.328125 0 Z M 4.328125 -10.796875 "/></g></g></g><g fill="rgb(32.939148%, 26.669312%, 30.589294%)" fill-opacity="1"><g transform="translate(124.107046, 238.666523)"><g><path d="M 10.34375 -2.84375 L 4.15625 -2.84375 L 2.984375 0 L -0.171875 0 L 5.75 -13.296875 L 8.796875 -13.296875 L 14.75 0 L 11.515625 0 Z M 9.359375 -5.1875 L 7.265625 -10.28125 L 5.15625 -5.1875 Z M 9.359375 -5.1875 "/></g></g></g><g fill="rgb(32.939148%, 26.669312%, 30.589294%)" fill-opacity="1"><g transform="translate(147.01799, 238.666523)"><g><path d="M 1.578125 -13.296875 L 4.65625 -13.296875 L 4.65625 -2.515625 L 11.328125 -2.515625 L 11.328125 0 L 1.578125 0 Z M 1.578125 -13.296875 "/></g></g></g></svg>