<svg xmlns="http://www.w3.org/2000/svg" xmlns:xlink="http://www.w3.org/1999/xlink" width="500" zoomAndPan="magnify" viewBox="0 0 375 374.999991" height="500" preserveAspectRatio="xMidYMid meet" version="1.0"><defs><clipPath id="id1"><path d="M 142.023438 138.464844 L 214 138.464844 L 214 211 L 142.023438 211 Z M 142.023438 138.464844 " clip-rule="nonzero"/></clipPath><clipPath id="id2"><path d="M 160 164 L 232.773438 164 L 232.773438 236.714844 L 160 236.714844 Z M 160 164 " clip-rule="nonzero"/></clipPath><clipPath id="id3"><path d="M 222 139 L 232.773438 139 L 232.773438 179 L 222 179 Z M 222 139 " clip-rule="nonzero"/></clipPath><clipPath id="id4"><path d="M 142.023438 222 L 157 222 L 157 236.714844 L 142.023438 236.714844 Z M 142.023438 222 " clip-rule="nonzero"/></clipPath></defs><g clip-path="url(#id1)"><path fill="rgb(32.939148%, 26.669312%, 30.589294%)" d="M 177.933594 200.355469 L 213.886719 200.355469 L 213.886719 210.675781 L 177.933594 210.675781 C 168.027344 210.675781 159.570312 207.136719 152.558594 200.097656 C 145.542969 193.054688 142.019531 184.558594 142.019531 174.574219 L 142.019531 138.511719 L 152.296875 138.511719 L 152.296875 174.574219 C 152.296875 181.730469 154.78125 187.765625 159.792969 192.792969 C 164.800781 197.824219 170.847656 200.355469 177.933594 200.355469 " fill-opacity="1" fill-rule="nonzero"/></g><g clip-path="url(#id2)"><path fill="rgb(100%, 59.609985%, 43.919373%)" d="M 196.859375 174.835938 L 160.941406 174.835938 L 160.941406 164.554688 L 196.859375 164.554688 C 206.800781 164.554688 215.261719 168.054688 222.234375 175.097656 C 229.285156 182.140625 232.773438 190.632812 232.773438 200.617188 L 232.773438 236.679688 L 222.496094 236.679688 L 222.496094 200.617188 C 222.496094 193.5 220.011719 187.429688 215 182.398438 C 209.992188 177.371094 203.945312 174.835938 196.859375 174.835938 " fill-opacity="1" fill-rule="nonzero"/></g><g clip-path="url(#id3)"><path fill="rgb(32.939148%, 26.669312%, 30.589294%)" d="M 222.496094 139.292969 L 232.773438 139.292969 L 232.773438 178.898438 C 231.03125 176.066406 228.914062 173.421875 226.429688 170.886719 C 225.167969 169.621094 223.871094 168.464844 222.496094 167.386719 L 222.496094 139.292969 " fill-opacity="1" fill-rule="evenodd"/></g><g clip-path="url(#id4)"><path fill="rgb(100%, 59.609985%, 43.919373%)" d="M 149.070312 236.679688 C 152.964844 236.679688 156.117188 233.515625 156.117188 229.601562 C 156.117188 225.691406 152.964844 222.523438 149.070312 222.523438 C 145.210938 222.523438 142.019531 225.691406 142.019531 229.601562 C 142.019531 233.515625 145.210938 236.679688 149.070312 236.679688 " fill-opacity="1" fill-rule="evenodd"/></g></svg>