<?xml version="1.0" standalone="no"?><svg xmlns:xlink="http://www.w3.org/1999/xlink" xmlns="http://www.w3.org/2000/svg" viewBox="0 0 1000 562.5011679841527" preserveAspectRatio="xMaxYMax slice"><g transform="scale(0.934387322232812)"><rect x="0" y="0" width="1070.2222222222222" height="602" fill="#ffffff"/><rect x="0" y="66.88888888888889" width="66.88888888888889" height="66.88888888888889" fill="#ffffff"/><rect x="334.44444444444446" y="66.88888888888889" width="66.88888888888889" height="66.88888888888889" fill="#ffffff"/><rect x="602" y="66.88888888888889" width="66.88888888888889" height="66.88888888888889" fill="#ffffff"/><rect x="602" y="66.89" width="33.44" height="33.44" fill="#ffc9b4"/><rect x="200.66666666666666" y="133.77777777777777" width="66.88888888888889" height="66.88888888888889" fill="#ffffff"/><rect x="200.67" y="167.22" width="33.44" height="33.44" fill="#fff3ee"/><rect x="267.55555555555554" y="133.77777777777777" width="66.88888888888889" height="66.88888888888889" fill="#ffffff"/><rect x="267.56" y="133.78" width="33.44" height="33.44" fill="#8e848a"/><rect x="301" y="133.78" width="33.44" height="33.44" fill="#ffe5db"/><rect x="602" y="133.77777777777777" width="66.88888888888889" height="66.88888888888889" fill="#ffffff"/><rect x="635.44" y="133.78" width="33.44" height="33.44" fill="#aea6ab"/><rect x="802.6666666666666" y="133.77777777777777" width="66.88888888888889" height="66.88888888888889" fill="#ffffff"/><rect x="869.5555555555555" y="133.77777777777777" width="66.88888888888889" height="66.88888888888889" fill="#ffffff"/><rect x="903" y="133.78" width="33.44" height="33.44" fill="#7f737a"/><rect x="936.4444444444443" y="133.77777777777777" width="66.88888888888889" height="66.88888888888889" fill="#ffffff"/><rect x="936.44" y="167.22" width="33.44" height="33.44" fill="#aea7ab"/><rect x="66.88888888888889" y="200.66666666666666" width="66.88888888888889" height="66.88888888888889" fill="#ffffff"/><rect x="66.89" y="200.67" width="33.44" height="33.44" fill="#fdfcfc"/><rect x="100.33" y="200.67" width="33.44" height="33.44" fill="#ffaf8f"/><rect x="66.89" y="234.11" width="33.44" height="33.44" fill="#9c9398"/><rect x="100.33" y="234.11" width="33.44" height="33.44" fill="#73666e"/><rect x="133.77777777777777" y="200.66666666666666" width="66.88888888888889" height="66.88888888888889" fill="#ffffff"/><rect x="602" y="200.66666666666666" width="66.88888888888889" height="66.88888888888889" fill="#ffffff"/><rect x="602" y="200.67" width="33.44" height="33.44" fill="#71646c"/><rect x="668.8888888888889" y="200.66666666666666" width="66.88888888888889" height="66.88888888888889" fill="#ffffff"/><rect x="702.33" y="200.67" width="33.44" height="33.44" fill="#ffbda3"/><rect x="668.89" y="234.11" width="33.44" height="33.44" fill="#ffb79c"/><rect x="802.6666666666666" y="200.66666666666666" width="66.88888888888889" height="66.88888888888889" fill="#ffffff"/><rect x="802.67" y="200.67" width="33.44" height="33.44" fill="#eceaeb"/><rect x="836.11" y="200.67" width="33.44" height="33.44" fill="#ff9c75"/><rect x="936.4444444444443" y="200.66666666666666" width="66.88888888888889" height="66.88888888888889" fill="#ffffff"/><rect x="936.44" y="200.67" width="33.44" height="33.44" fill="#cbc6c9"/><rect x="969.89" y="200.67" width="33.44" height="33.44" fill="#5a4a54"/><rect x="969.89" y="234.11" width="33.44" height="33.44" fill="#dcd9db"/><rect x="0" y="267.55555555555554" width="66.88888888888889" height="66.88888888888889" fill="#ffffff"/><rect x="0" y="267.56" width="33.44" height="33.44" fill="#8f848b"/><rect x="33.44" y="267.56" width="33.44" height="33.44" fill="#ffd1bf"/><rect x="0" y="301" width="33.44" height="33.44" fill="#fff2ed"/><rect x="66.88888888888889" y="267.55555555555554" width="66.88888888888889" height="66.88888888888889" fill="#ffffff"/><rect x="100.33" y="301" width="33.44" height="33.44" fill="#5e4f59"/><rect x="200.66666666666666" y="267.55555555555554" width="66.88888888888889" height="66.88888888888889" fill="#ffffff"/><rect x="234.11" y="267.56" width="33.44" height="33.44" fill="#ffefe8"/><rect x="535.1111111111111" y="267.55555555555554" width="66.88888888888889" height="66.88888888888889" fill="#ffffff"/><rect x="568.56" y="301" width="33.44" height="33.44" fill="#ffb497"/><rect x="668.8888888888889" y="267.55555555555554" width="66.88888888888889" height="66.88888888888889" fill="#ffffff"/><rect x="668.89" y="267.56" width="33.44" height="33.44" fill="#b4adb1"/><rect x="668.89" y="301" width="33.44" height="33.44" fill="#fff6f3"/><rect x="702.33" y="301" width="33.44" height="33.44" fill="#ffad8d"/><rect x="735.7777777777777" y="267.55555555555554" width="66.88888888888889" height="66.88888888888889" fill="#ffffff"/><rect x="735.78" y="301" width="33.44" height="33.44" fill="#ffccb8"/><rect x="769.22" y="301" width="33.44" height="33.44" fill="#988e94"/><rect x="802.6666666666666" y="267.55555555555554" width="66.88888888888889" height="66.88888888888889" fill="#ffffff"/><rect x="802.67" y="267.56" width="33.44" height="33.44" fill="#ff9d76"/><rect x="836.11" y="301" width="33.44" height="33.44" fill="#d9d6d8"/><rect x="936.4444444444443" y="267.55555555555554" width="66.88888888888889" height="66.88888888888889" fill="#ffffff"/><rect x="936.44" y="267.56" width="33.44" height="33.44" fill="#d0cbce"/><rect x="936.44" y="301" width="33.44" height="33.44" fill="#9b9197"/><rect x="969.89" y="301" width="33.44" height="33.44" fill="#ffeee8"/><rect x="1003.3333333333333" y="267.55555555555554" width="66.88888888888889" height="66.88888888888889" fill="#ffffff"/><rect x="1003.33" y="267.56" width="33.44" height="33.44" fill="#60515a"/><rect x="0" y="334.44444444444446" width="66.88888888888889" height="66.88888888888889" fill="#ffffff"/><rect x="0" y="334.44" width="33.44" height="33.44" fill="#ffc7b2"/><rect x="33.44" y="334.44" width="33.44" height="33.44" fill="#cfcbcd"/><rect x="0" y="367.89" width="33.44" height="33.44" fill="#5d4e57"/><rect x="33.44" y="367.89" width="33.44" height="33.44" fill="#fff9f6"/><rect x="66.88888888888889" y="334.44444444444446" width="66.88888888888889" height="66.88888888888889" fill="#ffffff"/><rect x="66.89" y="334.44" width="33.44" height="33.44" fill="#ffe0d4"/><rect x="66.89" y="367.89" width="33.44" height="33.44" fill="#b1a9ae"/><rect x="100.33" y="367.89" width="33.44" height="33.44" fill="#ffc4ad"/><rect x="133.77777777777777" y="334.44444444444446" width="66.88888888888889" height="66.88888888888889" fill="#ffffff"/><rect x="133.78" y="334.44" width="33.44" height="33.44" fill="#9b9298"/><rect x="133.78" y="367.89" width="33.44" height="33.44" fill="#9a9096"/><rect x="200.66666666666666" y="334.44444444444446" width="66.88888888888889" height="66.88888888888889" fill="#ffffff"/><rect x="200.67" y="334.44" width="33.44" height="33.44" fill="#fff3ee"/><rect x="234.11" y="334.44" width="33.44" height="33.44" fill="#cfcbce"/><rect x="200.67" y="367.89" width="33.44" height="33.44" fill="#beb8bb"/><rect x="234.11" y="367.89" width="33.44" height="33.44" fill="#eceaeb"/><rect x="401.3333333333333" y="334.44444444444446" width="66.88888888888889" height="66.88888888888889" fill="#ffffff"/><rect x="401.33" y="334.44" width="33.44" height="33.44" fill="#ffd9cb"/><rect x="434.78" y="334.44" width="33.44" height="33.44" fill="#b6afb4"/><rect x="602" y="334.44444444444446" width="66.88888888888889" height="66.88888888888889" fill="#ffffff"/><rect x="735.7777777777777" y="334.44444444444446" width="66.88888888888889" height="66.88888888888889" fill="#ffffff"/><rect x="735.78" y="334.44" width="33.44" height="33.44" fill="#ffcbb7"/><rect x="735.78" y="367.89" width="33.44" height="33.44" fill="#c4bec1"/><rect x="802.6666666666666" y="334.44444444444446" width="66.88888888888889" height="66.88888888888889" fill="#ffffff"/><rect x="802.67" y="367.89" width="33.44" height="33.44" fill="#ffd9ca"/><rect x="836.11" y="367.89" width="33.44" height="33.44" fill="#fff1ec"/><rect x="936.4444444444443" y="334.44444444444446" width="66.88888888888889" height="66.88888888888889" fill="#ffffff"/><rect x="936.44" y="334.44" width="33.44" height="33.44" fill="#776a72"/><rect x="969.89" y="334.44" width="33.44" height="33.44" fill="#8f858b"/><rect x="969.89" y="367.89" width="33.44" height="33.44" fill="#fff1ec"/><rect x="1003.3333333333333" y="334.44444444444446" width="66.88888888888889" height="66.88888888888889" fill="#ffffff"/><rect x="1003.33" y="334.44" width="33.44" height="33.44" fill="#ffb396"/><rect x="1036.78" y="334.44" width="33.44" height="33.44" fill="#ffa17d"/><rect x="1003.33" y="367.89" width="33.44" height="33.44" fill="#e9e7e8"/><rect x="1036.78" y="367.89" width="33.44" height="33.44" fill="#fcfcfc"/><rect x="66.88888888888889" y="401.3333333333333" width="66.88888888888889" height="66.88888888888889" fill="#ffffff"/><rect x="66.89" y="401.33" width="33.44" height="33.44" fill="#584852"/><rect x="100.33" y="434.78" width="33.44" height="33.44" fill="#fff3ee"/><rect x="133.77777777777777" y="401.3333333333333" width="66.88888888888889" height="66.88888888888889" fill="#ffffff"/><rect x="167.22" y="401.33" width="33.44" height="33.44" fill="#ffa683"/><rect x="133.78" y="434.78" width="33.44" height="33.44" fill="#776a72"/><rect x="167.22" y="434.78" width="33.44" height="33.44" fill="#695b64"/><rect x="200.66666666666666" y="401.3333333333333" width="66.88888888888889" height="66.88888888888889" fill="#ffffff"/><rect x="200.67" y="401.33" width="33.44" height="33.44" fill="#ffc4ae"/><rect x="234.11" y="401.33" width="33.44" height="33.44" fill="#948a91"/><rect x="200.67" y="434.78" width="33.44" height="33.44" fill="#ffb69a"/><rect x="234.11" y="434.78" width="33.44" height="33.44" fill="#cfcbcd"/><rect x="468.2222222222222" y="401.3333333333333" width="66.88888888888889" height="66.88888888888889" fill="#ffffff"/><rect x="468.22" y="434.78" width="33.44" height="33.44" fill="#6b5e66"/><rect x="535.1111111111111" y="401.3333333333333" width="66.88888888888889" height="66.88888888888889" fill="#ffffff"/><rect x="568.56" y="434.78" width="33.44" height="33.44" fill="#8e838a"/><rect x="602" y="401.3333333333333" width="66.88888888888889" height="66.88888888888889" fill="#ffffff"/><rect x="602" y="401.33" width="33.44" height="33.44" fill="#ffb395"/><rect x="635.44" y="401.33" width="33.44" height="33.44" fill="#7f737b"/><rect x="602" y="434.78" width="33.44" height="33.44" fill="#ffd4c3"/><rect x="635.44" y="434.78" width="33.44" height="33.44" fill="#f6f5f5"/><rect x="668.8888888888889" y="401.3333333333333" width="66.88888888888889" height="66.88888888888889" fill="#ffffff"/><rect x="668.89" y="401.33" width="33.44" height="33.44" fill="#9a9096"/><rect x="702.33" y="401.33" width="33.44" height="33.44" fill="#fff3ef"/><rect x="702.33" y="434.78" width="33.44" height="33.44" fill="#a0979d"/><rect x="735.7777777777777" y="401.3333333333333" width="66.88888888888889" height="66.88888888888889" fill="#ffffff"/><rect x="735.78" y="401.33" width="33.44" height="33.44" fill="#766971"/><rect x="735.78" y="434.78" width="33.44" height="33.44" fill="#ffe7de"/><rect x="869.5555555555555" y="401.3333333333333" width="66.88888888888889" height="66.88888888888889" fill="#ffffff"/><rect x="869.56" y="401.33" width="33.44" height="33.44" fill="#ffe7de"/><rect x="903" y="401.33" width="33.44" height="33.44" fill="#72656e"/><rect x="869.56" y="434.78" width="33.44" height="33.44" fill="#776a72"/><rect x="903" y="434.78" width="33.44" height="33.44" fill="#ff9c76"/><rect x="936.4444444444443" y="401.3333333333333" width="66.88888888888889" height="66.88888888888889" fill="#ffffff"/><rect x="936.44" y="401.33" width="33.44" height="33.44" fill="#6f616a"/><rect x="969.89" y="401.33" width="33.44" height="33.44" fill="#ffebe3"/><rect x="969.89" y="434.78" width="33.44" height="33.44" fill="#ffa27e"/><rect x="1003.3333333333333" y="401.3333333333333" width="66.88888888888889" height="66.88888888888889" fill="#ffffff"/><rect x="1003.33" y="401.33" width="33.44" height="33.44" fill="#fff3ee"/><rect x="1036.78" y="401.33" width="33.44" height="33.44" fill="#c1bbbf"/><rect x="1003.33" y="434.78" width="33.44" height="33.44" fill="#ffaa89"/><rect x="1036.78" y="434.78" width="33.44" height="33.44" fill="#ffb497"/><rect x="0" y="468.2222222222222" width="66.88888888888889" height="66.88888888888889" fill="#ffffff"/><rect x="0" y="468.22" width="33.44" height="33.44" fill="#cdc9cb"/><rect x="33.44" y="468.22" width="33.44" height="33.44" fill="#6b5d66"/><rect x="0" y="501.67" width="33.44" height="33.44" fill="#c3bec1"/><rect x="33.44" y="501.67" width="33.44" height="33.44" fill="#9e959b"/><rect x="66.88888888888889" y="468.2222222222222" width="66.88888888888889" height="66.88888888888889" fill="#ffffff"/><rect x="66.89" y="468.22" width="33.44" height="33.44" fill="#ffaa8a"/><rect x="100.33" y="468.22" width="33.44" height="33.44" fill="#ffd9ca"/><rect x="66.89" y="501.67" width="33.44" height="33.44" fill="#ffcbb6"/><rect x="100.33" y="501.67" width="33.44" height="33.44" fill="#bcb6ba"/><rect x="133.77777777777777" y="468.2222222222222" width="66.88888888888889" height="66.88888888888889" fill="#ffffff"/><rect x="133.78" y="468.22" width="33.44" height="33.44" fill="#ffb396"/><rect x="167.22" y="468.22" width="33.44" height="33.44" fill="#ffcfbc"/><rect x="133.78" y="501.67" width="33.44" height="33.44" fill="#ff9a72"/><rect x="167.22" y="501.67" width="33.44" height="33.44" fill="#ffe4da"/><rect x="200.66666666666666" y="468.2222222222222" width="66.88888888888889" height="66.88888888888889" fill="#ffffff"/><rect x="200.67" y="468.22" width="33.44" height="33.44" fill="#ff9a72"/><rect x="234.11" y="468.22" width="33.44" height="33.44" fill="#fff1ec"/><rect x="234.11" y="501.67" width="33.44" height="33.44" fill="#ffe4d9"/><rect x="267.55555555555554" y="468.2222222222222" width="66.88888888888889" height="66.88888888888889" fill="#ffffff"/><rect x="301" y="468.22" width="33.44" height="33.44" fill="#91868d"/><rect x="267.56" y="501.67" width="33.44" height="33.44" fill="#d7d3d6"/><rect x="301" y="501.67" width="33.44" height="33.44" fill="#c9c4c7"/><rect x="334.44444444444446" y="468.2222222222222" width="66.88888888888889" height="66.88888888888889" fill="#ffffff"/><rect x="334.44" y="468.22" width="33.44" height="33.44" fill="#847880"/><rect x="367.89" y="468.22" width="33.44" height="33.44" fill="#aca4a9"/><rect x="334.44" y="501.67" width="33.44" height="33.44" fill="#ffa886"/><rect x="367.89" y="501.67" width="33.44" height="33.44" fill="#ffd6c7"/><rect x="401.3333333333333" y="468.2222222222222" width="66.88888888888889" height="66.88888888888889" fill="#ffffff"/><rect x="401.33" y="468.22" width="33.44" height="33.44" fill="#897e85"/><rect x="434.78" y="468.22" width="33.44" height="33.44" fill="#e8e5e7"/><rect x="401.33" y="501.67" width="33.44" height="33.44" fill="#ffb89d"/><rect x="434.78" y="501.67" width="33.44" height="33.44" fill="#fffcfa"/><rect x="468.2222222222222" y="468.2222222222222" width="66.88888888888889" height="66.88888888888889" fill="#ffffff"/><rect x="468.22" y="468.22" width="33.44" height="33.44" fill="#ffad8d"/><rect x="501.67" y="468.22" width="33.44" height="33.44" fill="#e8e6e7"/><rect x="468.22" y="501.67" width="33.44" height="33.44" fill="#6f626a"/><rect x="501.67" y="501.67" width="33.44" height="33.44" fill="#e9e7e9"/><rect x="535.1111111111111" y="468.2222222222222" width="66.88888888888889" height="66.88888888888889" fill="#ffffff"/><rect x="535.11" y="468.22" width="33.44" height="33.44" fill="#6c5e66"/><rect x="568.56" y="468.22" width="33.44" height="33.44" fill="#e1dee0"/><rect x="535.11" y="501.67" width="33.44" height="33.44" fill="#dad7d9"/><rect x="568.56" y="501.67" width="33.44" height="33.44" fill="#8a7f86"/><rect x="602" y="468.2222222222222" width="66.88888888888889" height="66.88888888888889" fill="#ffffff"/><rect x="602" y="468.22" width="33.44" height="33.44" fill="#ffddd0"/><rect x="602" y="501.67" width="33.44" height="33.44" fill="#cecacd"/><rect x="635.44" y="501.67" width="33.44" height="33.44" fill="#ff9b75"/><rect x="668.8888888888889" y="468.2222222222222" width="66.88888888888889" height="66.88888888888889" fill="#ffffff"/><rect x="668.89" y="468.22" width="33.44" height="33.44" fill="#6c5f67"/><rect x="702.33" y="468.22" width="33.44" height="33.44" fill="#b9b3b7"/><rect x="668.89" y="501.67" width="33.44" height="33.44" fill="#ffa785"/><rect x="702.33" y="501.67" width="33.44" height="33.44" fill="#ffc0a8"/><rect x="735.7777777777777" y="468.2222222222222" width="66.88888888888889" height="66.88888888888889" fill="#ffffff"/><rect x="735.78" y="468.22" width="33.44" height="33.44" fill="#ffb598"/><rect x="769.22" y="468.22" width="33.44" height="33.44" fill="#cec9cc"/><rect x="735.78" y="501.67" width="33.44" height="33.44" fill="#665760"/><rect x="769.22" y="501.67" width="33.44" height="33.44" fill="#887d84"/><rect x="802.6666666666666" y="468.2222222222222" width="66.88888888888889" height="66.88888888888889" fill="#ffffff"/><rect x="836.11" y="468.22" width="33.44" height="33.44" fill="#c1bbbf"/><rect x="802.67" y="501.67" width="33.44" height="33.44" fill="#5e4f58"/><rect x="836.11" y="501.67" width="33.44" height="33.44" fill="#ffb89c"/><rect x="869.5555555555555" y="468.2222222222222" width="66.88888888888889" height="66.88888888888889" fill="#ffffff"/><rect x="869.56" y="468.22" width="33.44" height="33.44" fill="#54444e"/><rect x="903" y="468.22" width="33.44" height="33.44" fill="#968c92"/><rect x="869.56" y="501.67" width="33.44" height="33.44" fill="#d1cdcf"/><rect x="903" y="501.67" width="33.44" height="33.44" fill="#8a7f86"/><rect x="936.4444444444443" y="468.2222222222222" width="66.88888888888889" height="66.88888888888889" fill="#ffffff"/><rect x="936.44" y="468.22" width="33.44" height="33.44" fill="#675962"/><rect x="969.89" y="468.22" width="33.44" height="33.44" fill="#ffa683"/><rect x="936.44" y="501.67" width="33.44" height="33.44" fill="#ffac8c"/><rect x="969.89" y="501.67" width="33.44" height="33.44" fill="#a49ba1"/><rect x="1003.3333333333333" y="468.2222222222222" width="66.88888888888889" height="66.88888888888889" fill="#ffffff"/><rect x="1003.33" y="468.22" width="33.44" height="33.44" fill="#f8f7f8"/><rect x="1036.78" y="468.22" width="33.44" height="33.44" fill="#ffebe4"/><rect x="1003.33" y="501.67" width="33.44" height="33.44" fill="#a9a1a6"/><rect x="1036.78" y="501.67" width="33.44" height="33.44" fill="#ffd6c6"/><rect x="0" y="535.1111111111111" width="66.88888888888889" height="66.88888888888889" fill="#ffffff"/><rect x="0" y="535.11" width="33.44" height="33.44" fill="#584852"/><rect x="33.44" y="535.11" width="33.44" height="33.44" fill="#fffaf8"/><rect x="0" y="568.56" width="33.44" height="33.44" fill="#ffba9f"/><rect x="33.44" y="568.56" width="33.44" height="33.44" fill="#c0babd"/><rect x="66.88888888888889" y="535.1111111111111" width="66.88888888888889" height="66.88888888888889" fill="#ffffff"/><rect x="66.89" y="535.11" width="33.44" height="33.44" fill="#ffede5"/><rect x="100.33" y="535.11" width="33.44" height="33.44" fill="#bab4b8"/><rect x="66.89" y="568.56" width="33.44" height="33.44" fill="#80747b"/><rect x="100.33" y="568.56" width="33.44" height="33.44" fill="#ffac8b"/><rect x="133.77777777777777" y="535.1111111111111" width="66.88888888888889" height="66.88888888888889" fill="#ffffff"/><rect x="133.78" y="535.11" width="33.44" height="33.44" fill="#bfb9bd"/><rect x="167.22" y="535.11" width="33.44" height="33.44" fill="#fcfbfc"/><rect x="133.78" y="568.56" width="33.44" height="33.44" fill="#fff7f4"/><rect x="167.22" y="568.56" width="33.44" height="33.44" fill="#958b92"/><rect x="200.66666666666666" y="535.1111111111111" width="66.88888888888889" height="66.88888888888889" fill="#ffffff"/><rect x="200.67" y="535.11" width="33.44" height="33.44" fill="#665760"/><rect x="234.11" y="535.11" width="33.44" height="33.44" fill="#cbc6c9"/><rect x="200.67" y="568.56" width="33.44" height="33.44" fill="#e4e1e3"/><rect x="234.11" y="568.56" width="33.44" height="33.44" fill="#a29a9f"/><rect x="267.55555555555554" y="535.1111111111111" width="66.88888888888889" height="66.88888888888889" fill="#ffffff"/><rect x="267.56" y="535.11" width="33.44" height="33.44" fill="#6e6068"/><rect x="301" y="535.11" width="33.44" height="33.44" fill="#ffbda3"/><rect x="267.56" y="568.56" width="33.44" height="33.44" fill="#ffe7dd"/><rect x="301" y="568.56" width="33.44" height="33.44" fill="#ffb395"/><rect x="334.44444444444446" y="535.1111111111111" width="66.88888888888889" height="66.88888888888889" fill="#ffffff"/><rect x="334.44" y="535.11" width="33.44" height="33.44" fill="#fff6f2"/><rect x="367.89" y="535.11" width="33.44" height="33.44" fill="#fbfafa"/><rect x="334.44" y="568.56" width="33.44" height="33.44" fill="#c7c2c5"/><rect x="367.89" y="568.56" width="33.44" height="33.44" fill="#fff3ee"/><rect x="401.3333333333333" y="535.1111111111111" width="66.88888888888889" height="66.88888888888889" fill="#ffffff"/><rect x="401.33" y="535.11" width="33.44" height="33.44" fill="#fff9f7"/><rect x="434.78" y="535.11" width="33.44" height="33.44" fill="#ffa481"/><rect x="401.33" y="568.56" width="33.44" height="33.44" fill="#564751"/><rect x="434.78" y="568.56" width="33.44" height="33.44" fill="#ffa684"/><rect x="468.2222222222222" y="535.1111111111111" width="66.88888888888889" height="66.88888888888889" fill="#ffffff"/><rect x="468.22" y="535.11" width="33.44" height="33.44" fill="#fff4f0"/><rect x="501.67" y="535.11" width="33.44" height="33.44" fill="#cdc8cb"/><rect x="468.22" y="568.56" width="33.44" height="33.44" fill="#a1989e"/><rect x="501.67" y="568.56" width="33.44" height="33.44" fill="#fdfdfd"/><rect x="535.1111111111111" y="535.1111111111111" width="66.88888888888889" height="66.88888888888889" fill="#ffffff"/><rect x="535.11" y="535.11" width="33.44" height="33.44" fill="#ff9c76"/><rect x="568.56" y="535.11" width="33.44" height="33.44" fill="#ffab8b"/><rect x="535.11" y="568.56" width="33.44" height="33.44" fill="#ebe9ea"/><rect x="568.56" y="568.56" width="33.44" height="33.44" fill="#ffb294"/><rect x="602" y="535.1111111111111" width="66.88888888888889" height="66.88888888888889" fill="#ffffff"/><rect x="602" y="535.11" width="33.44" height="33.44" fill="#ff9d77"/><rect x="635.44" y="535.11" width="33.44" height="33.44" fill="#aca5aa"/><rect x="602" y="568.56" width="33.44" height="33.44" fill="#aba3a8"/><rect x="635.44" y="568.56" width="33.44" height="33.44" fill="#b4adb2"/><rect x="668.8888888888889" y="535.1111111111111" width="66.88888888888889" height="66.88888888888889" fill="#ffffff"/><rect x="668.89" y="535.11" width="33.44" height="33.44" fill="#fffaf8"/><rect x="702.33" y="535.11" width="33.44" height="33.44" fill="#a2999f"/><rect x="668.89" y="568.56" width="33.44" height="33.44" fill="#ffd3c1"/><rect x="702.33" y="568.56" width="33.44" height="33.44" fill="#ffae8f"/><rect x="735.7777777777777" y="535.1111111111111" width="66.88888888888889" height="66.88888888888889" fill="#ffffff"/><rect x="735.78" y="535.11" width="33.44" height="33.44" fill="#ffa07b"/><rect x="769.22" y="535.11" width="33.44" height="33.44" fill="#ffb395"/><rect x="735.78" y="568.56" width="33.44" height="33.44" fill="#ffbfa6"/><rect x="769.22" y="568.56" width="33.44" height="33.44" fill="#e0dddf"/><rect x="802.6666666666666" y="535.1111111111111" width="66.88888888888889" height="66.88888888888889" fill="#ffffff"/><rect x="802.67" y="535.11" width="33.44" height="33.44" fill="#ffa785"/><rect x="836.11" y="535.11" width="33.44" height="33.44" fill="#fff8f6"/><rect x="802.67" y="568.56" width="33.44" height="33.44" fill="#ffe3d7"/><rect x="836.11" y="568.56" width="33.44" height="33.44" fill="#665861"/><rect x="869.5555555555555" y="535.1111111111111" width="66.88888888888889" height="66.88888888888889" fill="#ffffff"/><rect x="869.56" y="535.11" width="33.44" height="33.44" fill="#ebe9ea"/><rect x="903" y="535.11" width="33.44" height="33.44" fill="#ffc9b4"/><rect x="869.56" y="568.56" width="33.44" height="33.44" fill="#c2bcc0"/><rect x="903" y="568.56" width="33.44" height="33.44" fill="#5e4f59"/><rect x="936.4444444444443" y="535.1111111111111" width="66.88888888888889" height="66.88888888888889" fill="#ffffff"/><rect x="936.44" y="535.11" width="33.44" height="33.44" fill="#60525b"/><rect x="969.89" y="535.11" width="33.44" height="33.44" fill="#ff9870"/><rect x="936.44" y="568.56" width="33.44" height="33.44" fill="#fcfcfc"/><rect x="969.89" y="568.56" width="33.44" height="33.44" fill="#ffc3ab"/><rect x="1003.3333333333333" y="535.1111111111111" width="66.88888888888889" height="66.88888888888889" fill="#ffffff"/><rect x="1003.33" y="535.11" width="33.44" height="33.44" fill="#bfb9bd"/><rect x="1036.78" y="535.11" width="33.44" height="33.44" fill="#ff9a73"/><rect x="1003.33" y="568.56" width="33.44" height="33.44" fill="#ff9a73"/><rect x="1036.78" y="568.56" width="33.44" height="33.44" fill="#e5e3e4"/></g></svg>