<?xml version="1.0" standalone="no"?><svg xmlns:xlink="http://www.w3.org/1999/xlink" xmlns="http://www.w3.org/2000/svg" viewBox="0 0 1000 562.5011679841527" preserveAspectRatio="xMaxYMax slice"><g transform="scale(0.934387322232812)"><rect x="0" y="0" width="1070.2222222222222" height="602" fill="#ffffff"/><rect x="334.44444444444446" y="66.88888888888889" width="66.88888888888889" height="66.88888888888889" fill="#ffffff"/><rect x="602" y="66.88888888888889" width="66.88888888888889" height="66.88888888888889" fill="#ffffff"/><rect x="668.8888888888889" y="66.88888888888889" width="66.88888888888889" height="66.88888888888889" fill="#ffffff"/><rect x="200.66666666666666" y="133.77777777777777" width="66.88888888888889" height="66.88888888888889" fill="#ffffff"/><path d="M 200.67 167.22 A 33.44 33.44 0 0 1  234.10999999999999 133.78 L 200.67 167.22 A 33.44 33.44 0 0 0 234.10999999999999 133.78" fill="#8c8188"/><path d="M 468.22 200.67000000000002 A 66.89 66.89 0 0 1  535.11 133.78 L 468.22 200.67000000000002 A 66.89 66.89 0 0 0 535.11 133.78" fill="#ff9e79"/><rect x="0" y="200.66666666666666" width="66.88888888888889" height="66.88888888888889" fill="#ffffff"/><path d="M 0 234.10999999999999 A 33.44 33.44 0 0 1  33.44 200.67 L 0 234.10999999999999 A 33.44 33.44 0 0 0 33.44 200.67" fill="#6c5e67"/><path d="M 33.44 200.67 A 33.44 33.44 0 0 1  66.88 234.10999999999999 L 33.44 200.67 A 33.44 33.44 0 0 0 66.88 234.10999999999999" fill="#e7e4e6"/><path d="M 0 267.55 A 33.44 33.44 0 0 1  33.44 234.11 L 0 267.55 A 33.44 33.44 0 0 0 33.44 234.11" fill="#ffb396"/><path d="M 334.44 200.67 A 66.89 66.89 0 0 1  401.33 267.56 L 334.44 200.67 A 66.89 66.89 0 0 0 401.33 267.56" fill="#685962"/><path d="M 468.22 200.67 A 66.89 66.89 0 0 1  535.11 267.56 L 468.22 200.67 A 66.89 66.89 0 0 0 535.11 267.56" fill="#ffd5c4"/><rect x="535.1111111111111" y="200.66666666666666" width="66.88888888888889" height="66.88888888888889" fill="#ffffff"/><path d="M 568.56 234.10999999999999 A 33.44 33.44 0 0 1  602 200.67 L 568.56 234.10999999999999 A 33.44 33.44 0 0 0 602 200.67" fill="#675962"/><path d="M 535.11 234.11 A 33.44 33.44 0 0 1  568.55 267.55 L 535.11 234.11 A 33.44 33.44 0 0 0 568.55 267.55" fill="#ffc2ab"/><path d="M 568.56 234.11 A 33.44 33.44 0 0 1  602 267.55 L 568.56 234.11 A 33.44 33.44 0 0 0 602 267.55" fill="#aca5a9"/><rect x="668.8888888888889" y="200.66666666666666" width="66.88888888888889" height="66.88888888888889" fill="#ffffff"/><path d="M 668.89 234.10999999999999 A 33.44 33.44 0 0 1  702.3299999999999 200.67 L 668.89 234.10999999999999 A 33.44 33.44 0 0 0 702.3299999999999 200.67" fill="#6b5d66"/><path d="M 702.33 200.67 A 33.44 33.44 0 0 1  735.77 234.10999999999999 L 702.33 200.67 A 33.44 33.44 0 0 0 735.77 234.10999999999999" fill="#ffc5af"/><path d="M 668.89 267.55 A 33.44 33.44 0 0 1  702.3299999999999 234.11 L 668.89 267.55 A 33.44 33.44 0 0 0 702.3299999999999 234.11" fill="#ffa07b"/><path d="M 702.33 234.11 A 33.44 33.44 0 0 1  735.77 267.55 L 702.33 234.11 A 33.44 33.44 0 0 0 735.77 267.55" fill="#ffbca2"/><rect x="735.7777777777777" y="200.66666666666666" width="66.88888888888889" height="66.88888888888889" fill="#ffffff"/><path d="M 735.78 267.55 A 33.44 33.44 0 0 1  769.22 234.11 L 735.78 267.55 A 33.44 33.44 0 0 0 769.22 234.11" fill="#ffad8e"/><path d="M 769.22 234.11 A 33.44 33.44 0 0 1  802.6600000000001 267.55 L 769.22 234.11 A 33.44 33.44 0 0 0 802.6600000000001 267.55" fill="#ffa380"/><rect x="802.6666666666666" y="200.66666666666666" width="66.88888888888889" height="66.88888888888889" fill="#ffffff"/><path d="M 869.56 200.67 A 66.89 66.89 0 0 1  936.4499999999999 267.56 L 869.56 200.67 A 66.89 66.89 0 0 0 936.4499999999999 267.56" fill="#ffc1a8"/><rect x="936.4444444444443" y="200.66666666666666" width="66.88888888888889" height="66.88888888888889" fill="#ffffff"/><path d="M 936.44 234.10999999999999 A 33.44 33.44 0 0 1  969.8800000000001 200.67 L 936.44 234.10999999999999 A 33.44 33.44 0 0 0 969.8800000000001 200.67" fill="#ffab8a"/><path d="M 969.89 267.55 A 33.44 33.44 0 0 1  1003.3299999999999 234.11 L 969.89 267.55 A 33.44 33.44 0 0 0 1003.3299999999999 234.11" fill="#ffe1d5"/><rect x="0" y="267.55555555555554" width="66.88888888888889" height="66.88888888888889" fill="#ffffff"/><path d="M 0 267.56 A 33.44 33.44 0 0 1  33.44 301 L 0 267.56 A 33.44 33.44 0 0 0 33.44 301" fill="#ffa785"/><path d="M 33.44 334.44 A 33.44 33.44 0 0 1  66.88 301 L 33.44 334.44 A 33.44 33.44 0 0 0 66.88 301" fill="#ffb599"/><path d="M 267.56 334.45 A 66.89 66.89 0 0 1  334.45 267.56 L 267.56 334.45 A 66.89 66.89 0 0 0 334.45 267.56" fill="#ffe6dd"/><rect x="334.44444444444446" y="267.55555555555554" width="66.88888888888889" height="66.88888888888889" fill="#ffffff"/><path d="M 367.89 301 A 33.44 33.44 0 0 1  401.33 334.44 L 367.89 301 A 33.44 33.44 0 0 0 401.33 334.44" fill="#ccc7ca"/><rect x="535.1111111111111" y="267.55555555555554" width="66.88888888888889" height="66.88888888888889" fill="#ffffff"/><path d="M 568.56 301 A 33.44 33.44 0 0 1  602 267.56 L 568.56 301 A 33.44 33.44 0 0 0 602 267.56" fill="#ffc1a9"/><path d="M 535.11 301 A 33.44 33.44 0 0 1  568.55 334.44 L 535.11 301 A 33.44 33.44 0 0 0 568.55 334.44" fill="#8e848a"/><rect x="602" y="267.55555555555554" width="66.88888888888889" height="66.88888888888889" fill="#ffffff"/><path d="M 635.44 267.56 A 33.44 33.44 0 0 1  668.8800000000001 301 L 635.44 267.56 A 33.44 33.44 0 0 0 668.8800000000001 301" fill="#8e848a"/><path d="M 635.44 334.44 A 33.44 33.44 0 0 1  668.8800000000001 301 L 635.44 334.44 A 33.44 33.44 0 0 0 668.8800000000001 301" fill="#ffa480"/><path d="M 735.78 334.45 A 66.89 66.89 0 0 1  802.67 267.56 L 735.78 334.45 A 66.89 66.89 0 0 0 802.67 267.56" fill="#fff8f5"/><path d="M 936.44 334.45 A 66.89 66.89 0 0 1  1003.33 267.56 L 936.44 334.45 A 66.89 66.89 0 0 0 1003.33 267.56" fill="#5e4f59"/><rect x="1003.3333333333333" y="267.55555555555554" width="66.88888888888889" height="66.88888888888889" fill="#ffffff"/><path d="M 1003.33 267.56 A 33.44 33.44 0 0 1  1036.77 301 L 1003.33 267.56 A 33.44 33.44 0 0 0 1036.77 301" fill="#f5f4f4"/><path d="M 1003.33 334.44 A 33.44 33.44 0 0 1  1036.77 301 L 1003.33 334.44 A 33.44 33.44 0 0 0 1036.77 301" fill="#f3f2f2"/><path d="M 1036.78 301 A 33.44 33.44 0 0 1  1070.22 334.44 L 1036.78 301 A 33.44 33.44 0 0 0 1070.22 334.44" fill="#ffa683"/><rect x="200.66666666666666" y="334.44444444444446" width="66.88888888888889" height="66.88888888888889" fill="#ffffff"/><path d="M 200.67 367.88 A 33.44 33.44 0 0 1  234.10999999999999 334.44 L 200.67 367.88 A 33.44 33.44 0 0 0 234.10999999999999 334.44" fill="#b3acb1"/><path d="M 234.11 367.88 A 33.44 33.44 0 0 1  267.55 334.44 L 234.11 367.88 A 33.44 33.44 0 0 0 267.55 334.44" fill="#aba3a8"/><path d="M 200.67 367.89 A 33.44 33.44 0 0 1  234.10999999999999 401.33 L 200.67 367.89 A 33.44 33.44 0 0 0 234.10999999999999 401.33" fill="#574851"/><path d="M 267.56 334.44 A 66.89 66.89 0 0 1  334.45 401.33 L 267.56 334.44 A 66.89 66.89 0 0 0 334.45 401.33" fill="#5d4e58"/><path d="M 334.44 334.44 A 66.89 66.89 0 0 1  401.33 401.33 L 334.44 334.44 A 66.89 66.89 0 0 0 401.33 401.33" fill="#fff9f6"/><path d="M 401.33 401.33 A 66.89 66.89 0 0 1  468.21999999999997 334.44 L 401.33 401.33 A 66.89 66.89 0 0 0 468.21999999999997 334.44" fill="#ffddd0"/><rect x="468.2222222222222" y="334.44444444444446" width="66.88888888888889" height="66.88888888888889" fill="#ffffff"/><path d="M 501.67 334.44 A 33.44 33.44 0 0 1  535.11 367.88 L 501.67 334.44 A 33.44 33.44 0 0 0 535.11 367.88" fill="#ffc8b3"/><path d="M 468.22 401.33 A 33.44 33.44 0 0 1  501.66 367.89 L 468.22 401.33 A 33.44 33.44 0 0 0 501.66 367.89" fill="#ffceba"/><rect x="535.1111111111111" y="334.44444444444446" width="66.88888888888889" height="66.88888888888889" fill="#ffffff"/><path d="M 535.11 367.88 A 33.44 33.44 0 0 1  568.55 334.44 L 535.11 367.88 A 33.44 33.44 0 0 0 568.55 334.44" fill="#fff2ed"/><path d="M 568.56 334.44 A 33.44 33.44 0 0 1  602 367.88 L 568.56 334.44 A 33.44 33.44 0 0 0 602 367.88" fill="#958b92"/><path d="M 568.56 367.89 A 33.44 33.44 0 0 1  602 401.33 L 568.56 367.89 A 33.44 33.44 0 0 0 602 401.33" fill="#ffccb9"/><rect x="735.7777777777777" y="334.44444444444446" width="66.88888888888889" height="66.88888888888889" fill="#ffffff"/><path d="M 735.78 334.44 A 33.44 33.44 0 0 1  769.22 367.88 L 735.78 334.44 A 33.44 33.44 0 0 0 769.22 367.88" fill="#c1bbbf"/><path d="M 769.22 334.44 A 33.44 33.44 0 0 1  802.6600000000001 367.88 L 769.22 334.44 A 33.44 33.44 0 0 0 802.6600000000001 367.88" fill="#ffa380"/><path d="M 735.78 401.33 A 33.44 33.44 0 0 1  769.22 367.89 L 735.78 401.33 A 33.44 33.44 0 0 0 769.22 367.89" fill="#9f969c"/><path d="M 769.22 401.33 A 33.44 33.44 0 0 1  802.6600000000001 367.89 L 769.22 401.33 A 33.44 33.44 0 0 0 802.6600000000001 367.89" fill="#c5c0c3"/><path d="M 802.67 334.44 A 66.89 66.89 0 0 1  869.56 401.33 L 802.67 334.44 A 66.89 66.89 0 0 0 869.56 401.33" fill="#bab4b8"/><path d="M 869.56 334.44 A 66.89 66.89 0 0 1  936.4499999999999 401.33 L 869.56 334.44 A 66.89 66.89 0 0 0 936.4499999999999 401.33" fill="#6f616a"/><rect x="936.4444444444443" y="334.44444444444446" width="66.88888888888889" height="66.88888888888889" fill="#ffffff"/><path d="M 969.89 334.44 A 33.44 33.44 0 0 1  1003.3299999999999 367.88 L 969.89 334.44 A 33.44 33.44 0 0 0 1003.3299999999999 367.88" fill="#a2999e"/><path d="M 936.44 401.33 A 33.44 33.44 0 0 1  969.8800000000001 367.89 L 936.44 401.33 A 33.44 33.44 0 0 0 969.8800000000001 367.89" fill="#fffbf9"/><path d="M 969.89 401.33 A 33.44 33.44 0 0 1  1003.3299999999999 367.89 L 969.89 401.33 A 33.44 33.44 0 0 0 1003.3299999999999 367.89" fill="#81757c"/><rect x="1003.3333333333333" y="334.44444444444446" width="66.88888888888889" height="66.88888888888889" fill="#ffffff"/><path d="M 1003.33 334.44 A 33.44 33.44 0 0 1  1036.77 367.88 L 1003.33 334.44 A 33.44 33.44 0 0 0 1036.77 367.88" fill="#fafafa"/><path d="M 1036.78 367.88 A 33.44 33.44 0 0 1  1070.22 334.44 L 1036.78 367.88 A 33.44 33.44 0 0 0 1070.22 334.44" fill="#7a6e76"/><path d="M 1003.33 367.89 A 33.44 33.44 0 0 1  1036.77 401.33 L 1003.33 367.89 A 33.44 33.44 0 0 0 1036.77 401.33" fill="#70636b"/><path d="M 1036.78 401.33 A 33.44 33.44 0 0 1  1070.22 367.89 L 1036.78 401.33 A 33.44 33.44 0 0 0 1070.22 367.89" fill="#ff9972"/><rect x="0" y="401.3333333333333" width="66.88888888888889" height="66.88888888888889" fill="#ffffff"/><path d="M 0 434.78 A 33.44 33.44 0 0 1  33.44 468.21999999999997 L 0 434.78 A 33.44 33.44 0 0 0 33.44 468.21999999999997" fill="#ffa27e"/><path d="M 33.44 434.78 A 33.44 33.44 0 0 1  66.88 468.21999999999997 L 33.44 434.78 A 33.44 33.44 0 0 0 66.88 468.21999999999997" fill="#ffd8c9"/><path d="M 66.89 401.33 A 66.89 66.89 0 0 1  133.78 468.21999999999997 L 66.89 401.33 A 66.89 66.89 0 0 0 133.78 468.21999999999997" fill="#61525b"/><rect x="133.77777777777777" y="401.3333333333333" width="66.88888888888889" height="66.88888888888889" fill="#ffffff"/><path d="M 133.78 434.77 A 33.44 33.44 0 0 1  167.22 401.33 L 133.78 434.77 A 33.44 33.44 0 0 0 167.22 401.33" fill="#83777e"/><path d="M 167.22 434.77 A 33.44 33.44 0 0 1  200.66 401.33 L 167.22 434.77 A 33.44 33.44 0 0 0 200.66 401.33" fill="#9f979c"/><rect x="200.66666666666666" y="401.3333333333333" width="66.88888888888889" height="66.88888888888889" fill="#ffffff"/><path d="M 200.67 434.78 A 33.44 33.44 0 0 1  234.10999999999999 468.21999999999997 L 200.67 434.78 A 33.44 33.44 0 0 0 234.10999999999999 468.21999999999997" fill="#72656d"/><path d="M 234.11 434.78 A 33.44 33.44 0 0 1  267.55 468.21999999999997 L 234.11 434.78 A 33.44 33.44 0 0 0 267.55 468.21999999999997" fill="#a1999e"/><path d="M 267.56 401.33 A 66.89 66.89 0 0 1  334.45 468.21999999999997 L 267.56 401.33 A 66.89 66.89 0 0 0 334.45 468.21999999999997" fill="#c0babe"/><rect x="401.3333333333333" y="401.3333333333333" width="66.88888888888889" height="66.88888888888889" fill="#ffffff"/><path d="M 401.33 401.33 A 33.44 33.44 0 0 1  434.77 434.77 L 401.33 401.33 A 33.44 33.44 0 0 0 434.77 434.77" fill="#80747b"/><path d="M 434.78 434.77 A 33.44 33.44 0 0 1  468.21999999999997 401.33 L 434.78 434.77 A 33.44 33.44 0 0 0 468.21999999999997 401.33" fill="#a59da2"/><path d="M 401.33 468.21999999999997 A 33.44 33.44 0 0 1  434.77 434.78 L 401.33 468.21999999999997 A 33.44 33.44 0 0 0 434.77 434.78" fill="#ffae8f"/><path d="M 434.78 468.21999999999997 A 33.44 33.44 0 0 1  468.21999999999997 434.78 L 434.78 468.21999999999997 A 33.44 33.44 0 0 0 468.21999999999997 434.78" fill="#d3cfd2"/><rect x="468.2222222222222" y="401.3333333333333" width="66.88888888888889" height="66.88888888888889" fill="#ffffff"/><path d="M 468.22 401.33 A 33.44 33.44 0 0 1  501.66 434.77 L 468.22 401.33 A 33.44 33.44 0 0 0 501.66 434.77" fill="#ffb79b"/><path d="M 468.22 468.21999999999997 A 33.44 33.44 0 0 1  501.66 434.78 L 468.22 468.21999999999997 A 33.44 33.44 0 0 0 501.66 434.78" fill="#fbfbfb"/><path d="M 501.67 468.21999999999997 A 33.44 33.44 0 0 1  535.11 434.78 L 501.67 468.21999999999997 A 33.44 33.44 0 0 0 535.11 434.78" fill="#b6afb3"/><path d="M 602 401.33 A 66.89 66.89 0 0 1  668.89 468.21999999999997 L 602 401.33 A 66.89 66.89 0 0 0 668.89 468.21999999999997" fill="#fefefe"/><rect x="668.8888888888889" y="401.3333333333333" width="66.88888888888889" height="66.88888888888889" fill="#ffffff"/><path d="M 668.89 401.33 A 33.44 33.44 0 0 1  702.3299999999999 434.77 L 668.89 401.33 A 33.44 33.44 0 0 0 702.3299999999999 434.77" fill="#fff9f7"/><path d="M 702.33 401.33 A 33.44 33.44 0 0 1  735.77 434.77 L 702.33 401.33 A 33.44 33.44 0 0 0 735.77 434.77" fill="#ffad8d"/><path d="M 668.89 434.78 A 33.44 33.44 0 0 1  702.3299999999999 468.21999999999997 L 668.89 434.78 A 33.44 33.44 0 0 0 702.3299999999999 468.21999999999997" fill="#ff9d76"/><path d="M 702.33 434.78 A 33.44 33.44 0 0 1  735.77 468.21999999999997 L 702.33 434.78 A 33.44 33.44 0 0 0 735.77 468.21999999999997" fill="#ffccb8"/><rect x="802.6666666666666" y="401.3333333333333" width="66.88888888888889" height="66.88888888888889" fill="#ffffff"/><path d="M 802.67 434.77 A 33.44 33.44 0 0 1  836.1099999999999 401.33 L 802.67 434.77 A 33.44 33.44 0 0 0 836.1099999999999 401.33" fill="#ffb497"/><path d="M 836.11 401.33 A 33.44 33.44 0 0 1  869.55 434.77 L 836.11 401.33 A 33.44 33.44 0 0 0 869.55 434.77" fill="#bfb9bd"/><path d="M 802.67 434.78 A 33.44 33.44 0 0 1  836.1099999999999 468.21999999999997 L 802.67 434.78 A 33.44 33.44 0 0 0 836.1099999999999 468.21999999999997" fill="#ffd6c6"/><path d="M 869.56 401.33 A 66.89 66.89 0 0 1  936.4499999999999 468.21999999999997 L 869.56 401.33 A 66.89 66.89 0 0 0 936.4499999999999 468.21999999999997" fill="#64555e"/><path d="M 936.44 401.33 A 66.89 66.89 0 0 1  1003.33 468.21999999999997 L 936.44 401.33 A 66.89 66.89 0 0 0 1003.33 468.21999999999997" fill="#d5d1d4"/><path d="M 1003.33 401.33 A 66.89 66.89 0 0 1  1070.22 468.21999999999997 L 1003.33 401.33 A 66.89 66.89 0 0 0 1070.22 468.21999999999997" fill="#ffad8d"/><rect x="0" y="468.2222222222222" width="66.88888888888889" height="66.88888888888889" fill="#ffffff"/><path d="M 0 468.22 A 33.44 33.44 0 0 1  33.44 501.66 L 0 468.22 A 33.44 33.44 0 0 0 33.44 501.66" fill="#fff6f2"/><path d="M 33.44 501.66 A 33.44 33.44 0 0 1  66.88 468.22 L 33.44 501.66 A 33.44 33.44 0 0 0 66.88 468.22" fill="#dcd9db"/><path d="M 0 501.67 A 33.44 33.44 0 0 1  33.44 535.11 L 0 501.67 A 33.44 33.44 0 0 0 33.44 535.11" fill="#ff9c76"/><path d="M 33.44 535.11 A 33.44 33.44 0 0 1  66.88 501.67 L 33.44 535.11 A 33.44 33.44 0 0 0 66.88 501.67" fill="#ffb89c"/><path d="M 66.89 535.11 A 66.89 66.89 0 0 1  133.78 468.22 L 66.89 535.11 A 66.89 66.89 0 0 0 133.78 468.22" fill="#f0eeef"/><path d="M 133.78 468.22 A 66.89 66.89 0 0 1  200.67000000000002 535.11 L 133.78 468.22 A 66.89 66.89 0 0 0 200.67000000000002 535.11" fill="#8c8288"/><path d="M 200.67 468.22 A 66.89 66.89 0 0 1  267.56 535.11 L 200.67 468.22 A 66.89 66.89 0 0 0 267.56 535.11" fill="#ccc8ca"/><rect x="267.55555555555554" y="468.2222222222222" width="66.88888888888889" height="66.88888888888889" fill="#ffffff"/><path d="M 301 501.66 A 33.44 33.44 0 0 1  334.44 468.22 L 301 501.66 A 33.44 33.44 0 0 0 334.44 468.22" fill="#ffc6b0"/><path d="M 267.56 535.11 A 33.44 33.44 0 0 1  301 501.67 L 267.56 535.11 A 33.44 33.44 0 0 0 301 501.67" fill="#fff3ef"/><path d="M 301 535.11 A 33.44 33.44 0 0 1  334.44 501.67 L 301 535.11 A 33.44 33.44 0 0 0 334.44 501.67" fill="#9d949a"/><rect x="334.44444444444446" y="468.2222222222222" width="66.88888888888889" height="66.88888888888889" fill="#ffffff"/><path d="M 334.44 501.66 A 33.44 33.44 0 0 1  367.88 468.22 L 334.44 501.66 A 33.44 33.44 0 0 0 367.88 468.22" fill="#ffa17c"/><path d="M 367.89 501.66 A 33.44 33.44 0 0 1  401.33 468.22 L 367.89 501.66 A 33.44 33.44 0 0 0 401.33 468.22" fill="#ffd7c7"/><path d="M 334.44 535.11 A 33.44 33.44 0 0 1  367.88 501.67 L 334.44 535.11 A 33.44 33.44 0 0 0 367.88 501.67" fill="#f5f4f5"/><path d="M 367.89 535.11 A 33.44 33.44 0 0 1  401.33 501.67 L 367.89 535.11 A 33.44 33.44 0 0 0 401.33 501.67" fill="#cac5c8"/><path d="M 468.22 468.22 A 66.89 66.89 0 0 1  535.11 535.11 L 468.22 468.22 A 66.89 66.89 0 0 0 535.11 535.11" fill="#b3acb1"/><rect x="535.1111111111111" y="468.2222222222222" width="66.88888888888889" height="66.88888888888889" fill="#ffffff"/><path d="M 535.11 501.66 A 33.44 33.44 0 0 1  568.55 468.22 L 535.11 501.66 A 33.44 33.44 0 0 0 568.55 468.22" fill="#5a4b54"/><path d="M 568.56 501.66 A 33.44 33.44 0 0 1  602 468.22 L 568.56 501.66 A 33.44 33.44 0 0 0 602 468.22" fill="#c7c2c5"/><path d="M 535.11 535.11 A 33.44 33.44 0 0 1  568.55 501.67 L 535.11 535.11 A 33.44 33.44 0 0 0 568.55 501.67" fill="#ffb091"/><path d="M 568.56 535.11 A 33.44 33.44 0 0 1  602 501.67 L 568.56 535.11 A 33.44 33.44 0 0 0 602 501.67" fill="#fffbf9"/><path d="M 602 535.11 A 66.89 66.89 0 0 1  668.89 468.22 L 602 535.11 A 66.89 66.89 0 0 0 668.89 468.22" fill="#fff8f6"/><rect x="668.8888888888889" y="468.2222222222222" width="66.88888888888889" height="66.88888888888889" fill="#ffffff"/><path d="M 668.89 468.22 A 33.44 33.44 0 0 1  702.3299999999999 501.66 L 668.89 468.22 A 33.44 33.44 0 0 0 702.3299999999999 501.66" fill="#ffe2d7"/><path d="M 702.33 501.66 A 33.44 33.44 0 0 1  735.77 468.22 L 702.33 501.66 A 33.44 33.44 0 0 0 735.77 468.22" fill="#dddadc"/><path d="M 668.89 501.67 A 33.44 33.44 0 0 1  702.3299999999999 535.11 L 668.89 501.67 A 33.44 33.44 0 0 0 702.3299999999999 535.11" fill="#cdc8cb"/><path d="M 702.33 535.11 A 33.44 33.44 0 0 1  735.77 501.67 L 702.33 535.11 A 33.44 33.44 0 0 0 735.77 501.67" fill="#8d8289"/><path d="M 735.78 468.22 A 66.89 66.89 0 0 1  802.67 535.11 L 735.78 468.22 A 66.89 66.89 0 0 0 802.67 535.11" fill="#ffbaa0"/><rect x="802.6666666666666" y="468.2222222222222" width="66.88888888888889" height="66.88888888888889" fill="#ffffff"/><path d="M 802.67 468.22 A 33.44 33.44 0 0 1  836.1099999999999 501.66 L 802.67 468.22 A 33.44 33.44 0 0 0 836.1099999999999 501.66" fill="#b6afb3"/><path d="M 836.11 468.22 A 33.44 33.44 0 0 1  869.55 501.66 L 836.11 468.22 A 33.44 33.44 0 0 0 869.55 501.66" fill="#988f95"/><path d="M 802.67 535.11 A 33.44 33.44 0 0 1  836.1099999999999 501.67 L 802.67 535.11 A 33.44 33.44 0 0 0 836.1099999999999 501.67" fill="#74676f"/><path d="M 836.11 501.67 A 33.44 33.44 0 0 1  869.55 535.11 L 836.11 501.67 A 33.44 33.44 0 0 0 869.55 535.11" fill="#ffe3d9"/><rect x="869.5555555555555" y="468.2222222222222" width="66.88888888888889" height="66.88888888888889" fill="#ffffff"/><path d="M 869.56 501.66 A 33.44 33.44 0 0 1  903 468.22 L 869.56 501.66 A 33.44 33.44 0 0 0 903 468.22" fill="#ffad8e"/><path d="M 903 501.66 A 33.44 33.44 0 0 1  936.44 468.22 L 903 501.66 A 33.44 33.44 0 0 0 936.44 468.22" fill="#968c92"/><path d="M 869.56 535.11 A 33.44 33.44 0 0 1  903 501.67 L 869.56 535.11 A 33.44 33.44 0 0 0 903 501.67" fill="#ff9972"/><path d="M 903 501.67 A 33.44 33.44 0 0 1  936.44 535.11 L 903 501.67 A 33.44 33.44 0 0 0 936.44 535.11" fill="#ffb69a"/><rect x="936.4444444444443" y="468.2222222222222" width="66.88888888888889" height="66.88888888888889" fill="#ffffff"/><path d="M 936.44 468.22 A 33.44 33.44 0 0 1  969.8800000000001 501.66 L 936.44 468.22 A 33.44 33.44 0 0 0 969.8800000000001 501.66" fill="#d1cccf"/><path d="M 969.89 501.66 A 33.44 33.44 0 0 1  1003.3299999999999 468.22 L 969.89 501.66 A 33.44 33.44 0 0 0 1003.3299999999999 468.22" fill="#ffa481"/><path d="M 969.89 535.11 A 33.44 33.44 0 0 1  1003.3299999999999 501.67 L 969.89 535.11 A 33.44 33.44 0 0 0 1003.3299999999999 501.67" fill="#aca5aa"/><path d="M 1003.33 535.11 A 66.89 66.89 0 0 1  1070.22 468.22 L 1003.33 535.11 A 66.89 66.89 0 0 0 1070.22 468.22" fill="#eceaeb"/><path d="M 0 535.11 A 66.89 66.89 0 0 1  66.89 602 L 0 535.11 A 66.89 66.89 0 0 0 66.89 602" fill="#675962"/><path d="M 66.89 535.11 A 66.89 66.89 0 0 1  133.78 602 L 66.89 535.11 A 66.89 66.89 0 0 0 133.78 602" fill="#ffc9b5"/><rect x="133.77777777777777" y="535.1111111111111" width="66.88888888888889" height="66.88888888888889" fill="#ffffff"/><path d="M 133.78 535.11 A 33.44 33.44 0 0 1  167.22 568.55 L 133.78 535.11 A 33.44 33.44 0 0 0 167.22 568.55" fill="#fcfcfc"/><path d="M 167.22 535.11 A 33.44 33.44 0 0 1  200.66 568.55 L 167.22 535.11 A 33.44 33.44 0 0 0 200.66 568.55" fill="#c8c3c6"/><path d="M 133.78 568.56 A 33.44 33.44 0 0 1  167.22 602 L 133.78 568.56 A 33.44 33.44 0 0 0 167.22 602" fill="#ffbda3"/><path d="M 167.22 568.56 A 33.44 33.44 0 0 1  200.66 602 L 167.22 568.56 A 33.44 33.44 0 0 0 200.66 602" fill="#ffa27e"/><rect x="200.66666666666666" y="535.1111111111111" width="66.88888888888889" height="66.88888888888889" fill="#ffffff"/><path d="M 200.67 568.55 A 33.44 33.44 0 0 1  234.10999999999999 535.11 L 200.67 568.55 A 33.44 33.44 0 0 0 234.10999999999999 535.11" fill="#fcfcfc"/><path d="M 234.11 568.55 A 33.44 33.44 0 0 1  267.55 535.11 L 234.11 568.55 A 33.44 33.44 0 0 0 267.55 535.11" fill="#8e838a"/><path d="M 200.67 568.56 A 33.44 33.44 0 0 1  234.10999999999999 602 L 200.67 568.56 A 33.44 33.44 0 0 0 234.10999999999999 602" fill="#ffdbcc"/><path d="M 234.11 568.56 A 33.44 33.44 0 0 1  267.55 602 L 234.11 568.56 A 33.44 33.44 0 0 0 267.55 602" fill="#73666e"/><rect x="267.55555555555554" y="535.1111111111111" width="66.88888888888889" height="66.88888888888889" fill="#ffffff"/><path d="M 267.56 568.55 A 33.44 33.44 0 0 1  301 535.11 L 267.56 568.55 A 33.44 33.44 0 0 0 301 535.11" fill="#8e848a"/><path d="M 301 568.55 A 33.44 33.44 0 0 1  334.44 535.11 L 301 568.55 A 33.44 33.44 0 0 0 334.44 535.11" fill="#6c5e67"/><path d="M 267.56 602 A 33.44 33.44 0 0 1  301 568.56 L 267.56 602 A 33.44 33.44 0 0 0 301 568.56" fill="#ffc1a8"/><path d="M 301 568.56 A 33.44 33.44 0 0 1  334.44 602 L 301 568.56 A 33.44 33.44 0 0 0 334.44 602" fill="#fafafa"/><path d="M 334.44 602 A 66.89 66.89 0 0 1  401.33 535.11 L 334.44 602 A 66.89 66.89 0 0 0 401.33 535.11" fill="#f4f3f3"/><path d="M 401.33 535.11 A 66.89 66.89 0 0 1  468.21999999999997 602 L 401.33 535.11 A 66.89 66.89 0 0 0 468.21999999999997 602" fill="#ffe2d7"/><path d="M 468.22 602 A 66.89 66.89 0 0 1  535.11 535.11 L 468.22 602 A 66.89 66.89 0 0 0 535.11 535.11" fill="#ffeae2"/><rect x="535.1111111111111" y="535.1111111111111" width="66.88888888888889" height="66.88888888888889" fill="#ffffff"/><path d="M 535.11 535.11 A 33.44 33.44 0 0 1  568.55 568.55 L 535.11 535.11 A 33.44 33.44 0 0 0 568.55 568.55" fill="#ffb294"/><path d="M 568.56 568.55 A 33.44 33.44 0 0 1  602 535.11 L 568.56 568.55 A 33.44 33.44 0 0 0 602 535.11" fill="#b2aaaf"/><path d="M 535.11 602 A 33.44 33.44 0 0 1  568.55 568.56 L 535.11 602 A 33.44 33.44 0 0 0 568.55 568.56" fill="#ff9e79"/><path d="M 568.56 568.56 A 33.44 33.44 0 0 1  602 602 L 568.56 568.56 A 33.44 33.44 0 0 0 602 602" fill="#ffe0d4"/><path d="M 602 602 A 66.89 66.89 0 0 1  668.89 535.11 L 602 602 A 66.89 66.89 0 0 0 668.89 535.11" fill="#fff2ed"/><path d="M 668.89 535.11 A 66.89 66.89 0 0 1  735.78 602 L 668.89 535.11 A 66.89 66.89 0 0 0 735.78 602" fill="#5d4d57"/><rect x="735.7777777777777" y="535.1111111111111" width="66.88888888888889" height="66.88888888888889" fill="#ffffff"/><path d="M 735.78 568.55 A 33.44 33.44 0 0 1  769.22 535.11 L 735.78 568.55 A 33.44 33.44 0 0 0 769.22 535.11" fill="#ffe7dd"/><path d="M 769.22 535.11 A 33.44 33.44 0 0 1  802.6600000000001 568.55 L 769.22 535.11 A 33.44 33.44 0 0 0 802.6600000000001 568.55" fill="#ffe5db"/><path d="M 735.78 568.56 A 33.44 33.44 0 0 1  769.22 602 L 735.78 568.56 A 33.44 33.44 0 0 0 769.22 602" fill="#dedbdd"/><path d="M 769.22 602 A 33.44 33.44 0 0 1  802.6600000000001 568.56 L 769.22 602 A 33.44 33.44 0 0 0 802.6600000000001 568.56" fill="#eae8ea"/><path d="M 802.67 602 A 66.89 66.89 0 0 1  869.56 535.11 L 802.67 602 A 66.89 66.89 0 0 0 869.56 535.11" fill="#766a72"/><rect x="869.5555555555555" y="535.1111111111111" width="66.88888888888889" height="66.88888888888889" fill="#ffffff"/><path d="M 869.56 535.11 A 33.44 33.44 0 0 1  903 568.55 L 869.56 535.11 A 33.44 33.44 0 0 0 903 568.55" fill="#ffaf90"/><path d="M 903 535.11 A 33.44 33.44 0 0 1  936.44 568.55 L 903 535.11 A 33.44 33.44 0 0 0 936.44 568.55" fill="#d0cbce"/><path d="M 869.56 568.56 A 33.44 33.44 0 0 1  903 602 L 869.56 568.56 A 33.44 33.44 0 0 0 903 602" fill="#d8d4d6"/><path d="M 903 568.56 A 33.44 33.44 0 0 1  936.44 602 L 903 568.56 A 33.44 33.44 0 0 0 936.44 602" fill="#cfcacd"/><path d="M 936.44 602 A 66.89 66.89 0 0 1  1003.33 535.11 L 936.44 602 A 66.89 66.89 0 0 0 1003.33 535.11" fill="#a29a9f"/><rect x="1003.3333333333333" y="535.1111111111111" width="66.88888888888889" height="66.88888888888889" fill="#ffffff"/><path d="M 1003.33 568.55 A 33.44 33.44 0 0 1  1036.77 535.11 L 1003.33 568.55 A 33.44 33.44 0 0 0 1036.77 535.11" fill="#ffeee7"/><path d="M 1036.78 568.55 A 33.44 33.44 0 0 1  1070.22 535.11 L 1036.78 568.55 A 33.44 33.44 0 0 0 1070.22 535.11" fill="#74676f"/><path d="M 1003.33 602 A 33.44 33.44 0 0 1  1036.77 568.56 L 1003.33 602 A 33.44 33.44 0 0 0 1036.77 568.56" fill="#ffd9ca"/><path d="M 1036.78 568.56 A 33.44 33.44 0 0 1  1070.22 602 L 1036.78 568.56 A 33.44 33.44 0 0 0 1070.22 602" fill="#54444e"/></g></svg>